# xmcd
#
# Track frame offsets:
#	150
#	14992
#	31070
#	47975
#	71492
#	84175
#	100530
#	116957
#	127945
#	142092
#	156752
#	182595
#
# Disc length: 2769 seconds
#
# Revision: 1
# Processed by: cddbd v1.5PL3 Copyright (c) Steve Scherf et al.
# Submitted via: audiograbber 1.81.03
#
DISCID=9e0acf0c
DTITLE=Easy Bill And The Big Beat - Midnight Creep
DYEAR=2003
DGENRE=Blues
TTITLE0=Gonna Tell Your Mother
TTITLE1=Starving For Your Love
TTITLE2=Swinging Out On A Vine
TTITLE3=Live To Love
TTITLE4=Shooty Booty
TTITLE5=Whiskey Drinking Woman
TTITLE6=Donw Boy
TTITLE7=Spending Time
TTITLE8=One More Kiss
TTITLE9=Midnight Creep
TTITLE10=Awful Thoughts
TTITLE11=Side Track
EXTD=
EXTT0=
EXTT1=
EXTT2=
EXTT3=
EXTT4=
EXTT5=
EXTT6=
EXTT7=
EXTT8=
EXTT9=
EXTT10=
EXTT11=
PLAYORDER=
